<svg xmlns="http://www.w3.org/2000/svg" width="24" height="24" viewBox="0 0 24 24"><path fill="#808191" d="M8 2.3c.4-.1.7 0 1 .3s.4.7.3 1C9.1 4.4 9 5.2 9 6a8.96 8.96 0 0 0 9 9c.8 0 1.6-.1 2.4-.3a.96.96 0 0 1 .9.2c.3.3.4.7.3 1C20.3 20.7 15.9 24 11 24A10.97 10.97 0 0 1 0 13C0 8.1 3.3 3.7 8 2.3zM21 6a.94.94 0 0 1 1 1h0v1h1a.94.94 0 0 1 1 1 .94.94 0 0 1-1 1h0-1v1a.94.94 0 0 1-1 1 .94.94 0 0 1-1-1h0v-1h-1a.94.94 0 0 1-1-1 .94.94 0 0 1 1-1h1V7a.94.94 0 0 1 1-1zm-6-6a.94.94 0 0 1 1 1h0v1h1a.94.94 0 0 1 1 1 .94.94 0 0 1-1 1h0-1v1a.94.94 0 0 1-1 1 .94.94 0 0 1-1-1h0V4h-1a.94.94 0 0 1-1-1 .94.94 0 0 1 1-1h1V1a.94.94 0 0 1 1-1z"/></svg>