<svg width="21" height="22" viewBox="0 0 21 22" fill="none" xmlns="http://www.w3.org/2000/svg">
<g clip-path="url(#clip0)">
<path d="M20.8778 11.2446C20.8778 10.5207 20.8191 9.79278 20.6938 9.08057H10.6484V13.1817H16.401C16.1623 14.5044 15.3952 15.6744 14.2721 16.418V19.079H17.7041C19.7194 17.2241 20.8778 14.4848 20.8778 11.2446Z" fill="#4285F4"/>
<path d="M10.648 21.65C13.5203 21.65 15.9426 20.7069 17.7075 19.079L14.2756 16.4179C13.3207 17.0675 12.088 17.4354 10.6519 17.4354C7.87344 17.4354 5.51765 15.5609 4.67238 13.0408H1.13086V15.784C2.9388 19.3803 6.62119 21.65 10.648 21.65Z" fill="#34A853"/>
<path d="M4.66855 13.0408C4.22243 11.7181 4.22243 10.2859 4.66855 8.96318V6.21997H1.13094C-0.379585 9.22928 -0.379585 12.7747 1.13094 15.784L4.66855 13.0408Z" fill="#FBBC04"/>
<path d="M10.648 4.56469C12.1663 4.54121 13.6338 5.11255 14.7334 6.16131L17.774 3.12069C15.8487 1.31275 13.2933 0.318777 10.648 0.350083C6.62119 0.350083 2.9388 2.61979 1.13086 6.22L4.66847 8.96321C5.50982 6.43915 7.86953 4.56469 10.648 4.56469Z" fill="#EA4335"/>
</g>
<defs>
<clipPath id="clip0">
<rect width="20.8774" height="21.3" fill="white" transform="translate(0 0.350098)"/>
</clipPath>
</defs>
</svg>
